# xmcd CD database file
#
# Track frame offsets:
#	150
#	33900
#	45454
#	61803
#	69179
#	108786
#	125508
#	161081
#	186735
#	196298
#	237093
#
# Disc length: 3722 seconds
#
# Revision: 0
# Processed by: cddbd v1.5.2PL0 Copyright (c) Steve Scherf et al.
# Submitted via: CDex 1.51
#
DISCID=8f0e880b
DTITLE=Rita Marcotulli - Omaggio ai Pink Floyd
DYEAR=2008
DGENRE=Jazz
TTITLE0=Astronomy Domine
TTITLE1=Melodico
TTITLE2=Cirrus Minor
TTITLE3=Intromoney
TTITLE4=Money
TTITLE5=Goodbye blue sky
TTITLE6=Burning bridges
TTITLE7=San Tropez
TTITLE8=Crying song
TTITLE9=Set the controls for the heart of the sun
TTITLE10=Us and them
EXTD=YEAR: 2008
EXTT0=
EXTT1=
EXTT2=
EXTT3=
EXTT4=
EXTT5=
EXTT6=
EXTT7=
EXTT8=
EXTT9=
EXTT10=
PLAYORDER=
